<svg width="710" height="67" viewBox="0 0 710 67" fill="none" xmlns="http://www.w3.org/2000/svg">
<path d="M14.6516 2.18182H17.2937V16.6278C17.2937 18.1193 16.9421 19.451 16.239 20.6229C15.543 21.7876 14.5593 22.7074 13.288 23.3821C12.0167 24.0497 10.5252 24.3835 8.81357 24.3835C7.10192 24.3835 5.61044 24.0497 4.33913 23.3821C3.06783 22.7074 2.08061 21.7876 1.37749 20.6229C0.681463 19.451 0.333452 18.1193 0.333452 16.6278V2.18182H2.9755V16.4148C2.9755 17.4801 3.20987 18.4283 3.67862 19.2592C4.14737 20.0831 4.81499 20.733 5.68146 21.2088C6.55504 21.6776 7.59908 21.9119 8.81357 21.9119C10.0281 21.9119 11.0721 21.6776 11.9457 21.2088C12.8192 20.733 13.4869 20.0831 13.9485 19.2592C14.4173 18.4283 14.6516 17.4801 14.6516 16.4148V2.18182ZM24.7431 14.1562V24H22.2289V7.63636H24.6578V10.1932H24.8709C25.2544 9.36222 25.8368 8.6946 26.6181 8.19034C27.3993 7.67898 28.4078 7.4233 29.6436 7.4233C30.7516 7.4233 31.7211 7.65057 32.552 8.10511C33.383 8.55256 34.0293 9.23438 34.4909 10.1506C34.9526 11.0597 35.1834 12.2102 35.1834 13.6023V24H32.6692V13.7727C32.6692 12.4872 32.3354 11.4858 31.6678 10.7685C31.0002 10.044 30.084 9.68182 28.9192 9.68182C28.1167 9.68182 27.3993 9.85582 26.7672 10.2038C26.1422 10.5518 25.6486 11.0597 25.2864 11.7273C24.9242 12.3949 24.7431 13.2045 24.7431 14.1562ZM61.5959 7.63636L55.5447 24H52.9879L46.9368 7.63636H49.6641L54.1811 20.6761H54.3516L58.8686 7.63636H61.5959ZM64.9144 24V7.63636H67.4286V24H64.9144ZM66.1928 4.90909C65.7028 4.90909 65.2802 4.74219 64.9251 4.40838C64.5771 4.07457 64.4031 3.6733 64.4031 3.20455C64.4031 2.7358 64.5771 2.33452 64.9251 2.00071C65.2802 1.6669 65.7028 1.5 66.1928 1.5C66.6829 1.5 67.1019 1.6669 67.4499 2.00071C67.805 2.33452 67.9826 2.7358 67.9826 3.20455C67.9826 3.6733 67.805 4.07457 67.4499 4.40838C67.1019 4.74219 66.6829 4.90909 66.1928 4.90909ZM76.8489 24.3835C75.812 24.3835 74.8709 24.1882 74.0257 23.7976C73.1806 23.3999 72.5094 22.8281 72.0123 22.0824C71.5151 21.3295 71.2665 20.4205 71.2665 19.3551C71.2665 18.4176 71.4512 17.6577 71.8205 17.0753C72.1898 16.4858 72.6834 16.0241 73.3013 15.6903C73.9192 15.3565 74.601 15.108 75.3468 14.9446C76.0996 14.7741 76.856 14.6392 77.6159 14.5398C78.6103 14.4119 79.4164 14.3161 80.0343 14.2521C80.6593 14.1811 81.1138 14.0639 81.3979 13.9006C81.6891 13.7372 81.8347 13.4531 81.8347 13.0483V12.9631C81.8347 11.9119 81.5471 11.0952 80.9718 10.5128C80.4036 9.9304 79.5407 9.6392 78.383 9.6392C77.1827 9.6392 76.2417 9.90199 75.5598 10.4276C74.878 10.9531 74.3986 11.5142 74.1216 12.1108L71.7353 11.2585C72.1614 10.2642 72.7296 9.49006 73.4398 8.93608C74.1571 8.375 74.9384 7.98437 75.7836 7.7642C76.6358 7.53693 77.4739 7.4233 78.2978 7.4233C78.8233 7.4233 79.427 7.48722 80.1088 7.61506C80.7978 7.73579 81.4618 7.98793 82.101 8.37145C82.7473 8.75497 83.2836 9.33381 83.7097 10.108C84.1358 10.8821 84.3489 11.919 84.3489 13.2188V24H81.8347V21.7841H81.7069C81.5364 22.1392 81.2523 22.5192 80.8546 22.924C80.4569 23.3288 79.9277 23.6733 79.2672 23.9574C78.6067 24.2415 77.8006 24.3835 76.8489 24.3835ZM77.2324 22.125C78.2267 22.125 79.0648 21.9297 79.7466 21.5391C80.4355 21.1484 80.954 20.6442 81.302 20.0263C81.6571 19.4084 81.8347 18.7585 81.8347 18.0767V15.7756C81.7282 15.9034 81.4938 16.0206 81.1316 16.1271C80.7765 16.2266 80.3645 16.3153 79.8958 16.3935C79.4341 16.4645 78.9831 16.5284 78.5428 16.5852C78.1096 16.6349 77.758 16.6776 77.4881 16.7131C76.8347 16.7983 76.2239 16.9368 75.6557 17.1286C75.0946 17.3132 74.6401 17.5937 74.2921 17.9702C73.9512 18.3395 73.7807 18.8437 73.7807 19.483C73.7807 20.3565 74.1039 21.017 74.7502 21.4645C75.4036 21.9048 76.231 22.125 77.2324 22.125ZM88.9379 7.63636H91.4521V25.1932C91.4521 26.2017 91.2781 27.0753 90.93 27.8139C90.5891 28.5526 90.0707 29.1243 89.3746 29.5291C88.6857 29.9339 87.8157 30.1364 86.7646 30.1364C86.6793 30.1364 86.5941 30.1364 86.5089 30.1364C86.4237 30.1364 86.3384 30.1364 86.2532 30.1364V27.7926C86.3384 27.7926 86.4165 27.7926 86.4876 27.7926C86.5586 27.7926 86.6367 27.7926 86.7219 27.7926C87.489 27.7926 88.0501 27.5653 88.4052 27.1108C88.7603 26.6634 88.9379 26.0241 88.9379 25.1932V7.63636ZM90.1737 4.90909C89.6836 4.90909 89.261 4.74219 88.9059 4.40838C88.5579 4.07457 88.3839 3.6733 88.3839 3.20455C88.3839 2.7358 88.5579 2.33452 88.9059 2.00071C89.261 1.6669 89.6836 1.5 90.1737 1.5C90.6637 1.5 91.0827 1.6669 91.4308 2.00071C91.7859 2.33452 91.9634 2.7358 91.9634 3.20455C91.9634 3.6733 91.7859 4.07457 91.4308 4.40838C91.0827 4.74219 90.6637 4.90909 90.1737 4.90909ZM102.918 24.3409C101.341 24.3409 99.981 23.9929 98.8375 23.2969C97.7012 22.5938 96.824 21.6136 96.2061 20.3565C95.5953 19.0923 95.29 17.6222 95.29 15.946C95.29 14.2699 95.5953 12.7926 96.2061 11.5142C96.824 10.2287 97.6834 9.22727 98.7843 8.50994C99.8922 7.78551 101.185 7.4233 102.662 7.4233C103.514 7.4233 104.356 7.56534 105.187 7.84943C106.018 8.13352 106.774 8.59517 107.456 9.23438C108.138 9.86648 108.681 10.7045 109.086 11.7486C109.491 12.7926 109.693 14.0781 109.693 15.6051V16.6705H97.0797V14.4972H107.137C107.137 13.5739 106.952 12.75 106.583 12.0256C106.22 11.3011 105.702 10.7294 105.027 10.3104C104.36 9.89133 103.571 9.68182 102.662 9.68182C101.661 9.68182 100.794 9.9304 100.063 10.4276C99.3382 10.9176 98.7807 11.5568 98.3901 12.3452C97.9995 13.1335 97.8042 13.9787 97.8042 14.8807V16.3295C97.8042 17.5653 98.0172 18.6129 98.4434 19.4723C98.8766 20.3246 99.4767 20.9744 100.244 21.4219C101.011 21.8622 101.902 22.0824 102.918 22.0824C103.578 22.0824 104.175 21.9901 104.708 21.8054C105.247 21.6136 105.713 21.3295 106.103 20.9531C106.494 20.5696 106.796 20.0937 107.009 19.5256L109.438 20.2074C109.182 21.0312 108.752 21.7557 108.149 22.3807C107.545 22.9986 106.799 23.4815 105.911 23.8295C105.024 24.1705 104.026 24.3409 102.918 24.3409ZM128.816 24.3409C127.24 24.3409 125.879 23.9929 124.736 23.2969C123.6 22.5938 122.722 21.6136 122.105 20.3565C121.494 19.0923 121.188 17.6222 121.188 15.946C121.188 14.2699 121.494 12.7926 122.105 11.5142C122.722 10.2287 123.582 9.22727 124.683 8.50994C125.791 7.78551 127.083 7.4233 128.561 7.4233C129.413 7.4233 130.254 7.56534 131.085 7.84943C131.916 8.13352 132.673 8.59517 133.355 9.23438C134.036 9.86648 134.58 10.7045 134.985 11.7486C135.389 12.7926 135.592 14.0781 135.592 15.6051V16.6705H122.978V14.4972H133.035C133.035 13.5739 132.85 12.75 132.481 12.0256C132.119 11.3011 131.6 10.7294 130.926 10.3104C130.258 9.89133 129.47 9.68182 128.561 9.68182C127.559 9.68182 126.693 9.9304 125.961 10.4276C125.237 10.9176 124.679 11.5568 124.289 12.3452C123.898 13.1335 123.703 13.9787 123.703 14.8807V16.3295C123.703 17.5653 123.916 18.6129 124.342 19.4723C124.775 20.3246 125.375 20.9744 126.142 21.4219C126.909 21.8622 127.801 22.0824 128.816 22.0824C129.477 22.0824 130.073 21.9901 130.606 21.8054C131.146 21.6136 131.611 21.3295 132.002 20.9531C132.392 20.5696 132.694 20.0937 132.907 19.5256L135.336 20.2074C135.08 21.0312 134.651 21.7557 134.047 22.3807C133.443 22.9986 132.698 23.4815 131.81 23.8295C130.922 24.1705 129.924 24.3409 128.816 24.3409ZM127.282 5.42045L129.882 0.477272H132.822L129.498 5.42045H127.282ZM139.416 30.1364V7.63636H141.845V10.2358H142.144C142.328 9.9517 142.584 9.58949 142.911 9.14915C143.244 8.7017 143.72 8.30398 144.338 7.95597C144.963 7.60085 145.808 7.4233 146.874 7.4233C148.252 7.4233 149.466 7.76776 150.517 8.45668C151.568 9.1456 152.389 10.1222 152.978 11.3864C153.568 12.6506 153.862 14.142 153.862 15.8608C153.862 17.5938 153.568 19.0959 152.978 20.3672C152.389 21.6314 151.572 22.6115 150.528 23.3075C149.484 23.9964 148.28 24.3409 146.916 24.3409C145.865 24.3409 145.024 24.1669 144.392 23.8189C143.759 23.4638 143.273 23.0625 142.932 22.6151C142.591 22.1605 142.328 21.7841 142.144 21.4858H141.931V30.1364H139.416ZM141.888 15.8182C141.888 17.054 142.069 18.1442 142.431 19.0888C142.794 20.0263 143.323 20.7614 144.019 21.294C144.715 21.8196 145.567 22.0824 146.575 22.0824C147.627 22.0824 148.504 21.8054 149.207 21.2514C149.917 20.6903 150.45 19.9375 150.805 18.9929C151.167 18.0412 151.348 16.983 151.348 15.8182C151.348 14.6676 151.171 13.6307 150.816 12.7074C150.468 11.777 149.938 11.0419 149.228 10.5021C148.525 9.95526 147.641 9.68182 146.575 9.68182C145.553 9.68182 144.693 9.94105 143.997 10.4595C143.301 10.9709 142.776 11.6882 142.421 12.6115C142.066 13.5277 141.888 14.5966 141.888 15.8182ZM157.698 24V7.63636H160.212V24H157.698ZM158.976 4.90909C158.486 4.90909 158.063 4.74219 157.708 4.40838C157.36 4.07457 157.186 3.6733 157.186 3.20455C157.186 2.7358 157.36 2.33452 157.708 2.00071C158.063 1.6669 158.486 1.5 158.976 1.5C159.466 1.5 159.885 1.6669 160.233 2.00071C160.588 2.33452 160.766 2.7358 160.766 3.20455C160.766 3.6733 160.588 4.07457 160.233 4.40838C159.885 4.74219 159.466 4.90909 158.976 4.90909ZM171.464 24.3409C169.93 24.3409 168.609 23.9787 167.501 23.2543C166.393 22.5298 165.541 21.532 164.945 20.2607C164.348 18.9893 164.05 17.5369 164.05 15.9034C164.05 14.2415 164.355 12.7749 164.966 11.5036C165.584 10.2251 166.443 9.22727 167.544 8.50994C168.652 7.78551 169.945 7.4233 171.422 7.4233C172.572 7.4233 173.609 7.63636 174.533 8.0625C175.456 8.48864 176.212 9.08523 176.802 9.85227C177.391 10.6193 177.757 11.5142 177.899 12.5369H175.385C175.193 11.7912 174.767 11.1307 174.107 10.5554C173.453 9.97301 172.572 9.68182 171.464 9.68182C170.484 9.68182 169.625 9.9375 168.886 10.4489C168.155 10.9531 167.583 11.6669 167.171 12.5902C166.766 13.5064 166.564 14.5824 166.564 15.8182C166.564 17.0824 166.763 18.1832 167.161 19.1207C167.565 20.0582 168.134 20.7862 168.865 21.3047C169.604 21.8232 170.47 22.0824 171.464 22.0824C172.118 22.0824 172.711 21.9688 173.244 21.7415C173.776 21.5142 174.227 21.1875 174.597 20.7614C174.966 20.3352 175.229 19.8239 175.385 19.2273H177.899C177.757 20.1932 177.406 21.0632 176.844 21.8374C176.29 22.6044 175.555 23.2152 174.639 23.6697C173.73 24.1172 172.672 24.3409 171.464 24.3409ZM188.222 24.3409C186.745 24.3409 185.449 23.9893 184.334 23.2862C183.226 22.5831 182.359 21.5994 181.734 20.3352C181.116 19.071 180.808 17.5937 180.808 15.9034C180.808 14.1989 181.116 12.7109 181.734 11.4396C182.359 10.1683 183.226 9.18111 184.334 8.47798C185.449 7.77486 186.745 7.4233 188.222 7.4233C189.7 7.4233 190.992 7.77486 192.1 8.47798C193.215 9.18111 194.082 10.1683 194.7 11.4396C195.325 12.7109 195.637 14.1989 195.637 15.9034C195.637 17.5937 195.325 19.071 194.7 20.3352C194.082 21.5994 193.215 22.5831 192.1 23.2862C190.992 23.9893 189.7 24.3409 188.222 24.3409ZM188.222 22.0824C189.344 22.0824 190.268 21.7947 190.992 21.2195C191.717 20.6442 192.253 19.8878 192.601 18.9503C192.949 18.0128 193.123 16.9972 193.123 15.9034C193.123 14.8097 192.949 13.7905 192.601 12.8459C192.253 11.9013 191.717 11.1378 190.992 10.5554C190.268 9.97301 189.344 9.68182 188.222 9.68182C187.1 9.68182 186.177 9.97301 185.452 10.5554C184.728 11.1378 184.192 11.9013 183.844 12.8459C183.496 13.7905 183.322 14.8097 183.322 15.9034C183.322 16.9972 183.496 18.0128 183.844 18.9503C184.192 19.8878 184.728 20.6442 185.452 21.2195C186.177 21.7947 187.1 22.0824 188.222 22.0824ZM214.091 24.3409C212.728 24.3409 211.524 23.9964 210.48 23.3075C209.436 22.6115 208.619 21.6314 208.03 20.3672C207.44 19.0959 207.145 17.5938 207.145 15.8608C207.145 14.142 207.44 12.6506 208.03 11.3864C208.619 10.1222 209.439 9.1456 210.491 8.45668C211.542 7.76776 212.756 7.4233 214.134 7.4233C215.199 7.4233 216.041 7.60085 216.659 7.95597C217.284 8.30398 217.76 8.7017 218.086 9.14915C218.42 9.58949 218.68 9.9517 218.864 10.2358H219.077V2.18182H221.591V24H219.162V21.4858H218.864C218.68 21.7841 218.417 22.1605 218.076 22.6151C217.735 23.0625 217.248 23.4638 216.616 23.8189C215.984 24.1669 215.143 24.3409 214.091 24.3409ZM214.432 22.0824C215.441 22.0824 216.293 21.8196 216.989 21.294C217.685 20.7614 218.214 20.0263 218.577 19.0888C218.939 18.1442 219.12 17.054 219.12 15.8182C219.12 14.5966 218.942 13.5277 218.587 12.6115C218.232 11.6882 217.706 10.9709 217.01 10.4595C216.314 9.94105 215.455 9.68182 214.432 9.68182C213.367 9.68182 212.479 9.95526 211.769 10.5021C211.066 11.0419 210.537 11.777 210.182 12.7074C209.834 13.6307 209.66 14.6676 209.66 15.8182C209.66 16.983 209.837 18.0412 210.192 18.9929C210.555 19.9375 211.087 20.6903 211.79 21.2514C212.501 21.8054 213.381 22.0824 214.432 22.0824ZM233.406 24.3409C231.829 24.3409 230.469 23.9929 229.326 23.2969C228.189 22.5938 227.312 21.6136 226.694 20.3565C226.084 19.0923 225.778 17.6222 225.778 15.946C225.778 14.2699 226.084 12.7926 226.694 11.5142C227.312 10.2287 228.172 9.22727 229.273 8.50994C230.381 7.78551 231.673 7.4233 233.15 7.4233C234.003 7.4233 234.844 7.56534 235.675 7.84943C236.506 8.13352 237.263 8.59517 237.944 9.23438C238.626 9.86648 239.17 10.7045 239.574 11.7486C239.979 12.7926 240.182 14.0781 240.182 15.6051V16.6705H227.568V14.4972H237.625C237.625 13.5739 237.44 12.75 237.071 12.0256C236.709 11.3011 236.19 10.7294 235.515 10.3104C234.848 9.89133 234.059 9.68182 233.15 9.68182C232.149 9.68182 231.282 9.9304 230.551 10.4276C229.827 10.9176 229.269 11.5568 228.878 12.3452C228.488 13.1335 228.292 13.9787 228.292 14.8807V16.3295C228.292 17.5653 228.506 18.6129 228.932 19.4723C229.365 20.3246 229.965 20.9744 230.732 21.4219C231.499 21.8622 232.39 22.0824 233.406 22.0824C234.067 22.0824 234.663 21.9901 235.196 21.8054C235.736 21.6136 236.201 21.3295 236.591 20.9531C236.982 20.5696 237.284 20.0937 237.497 19.5256L239.926 20.2074C239.67 21.0312 239.241 21.7557 238.637 22.3807C238.033 22.9986 237.287 23.4815 236.4 23.8295C235.512 24.1705 234.514 24.3409 233.406 24.3409ZM252.785 24V2.18182H255.427V13.0057H255.682L265.483 2.18182H268.935L259.773 12.0256L268.935 24H265.739L258.154 13.858L255.427 16.9261V24H252.785ZM277.674 24.3409C276.097 24.3409 274.737 23.9929 273.593 23.2969C272.457 22.5938 271.58 21.6136 270.962 20.3565C270.351 19.0923 270.046 17.6222 270.046 15.946C270.046 14.2699 270.351 12.7926 270.962 11.5142C271.58 10.2287 272.439 9.22727 273.54 8.50994C274.648 7.78551 275.941 7.4233 277.418 7.4233C278.27 7.4233 279.112 7.56534 279.943 7.84943C280.774 8.13352 281.53 8.59517 282.212 9.23438C282.894 9.86648 283.437 10.7045 283.842 11.7486C284.247 12.7926 284.449 14.0781 284.449 15.6051V16.6705H271.836V14.4972H281.892C281.892 13.5739 281.708 12.75 281.338 12.0256C280.976 11.3011 280.458 10.7294 279.783 10.3104C279.115 9.89133 278.327 9.68182 277.418 9.68182C276.417 9.68182 275.55 9.9304 274.819 10.4276C274.094 10.9176 273.537 11.5568 273.146 12.3452C272.755 13.1335 272.56 13.9787 272.56 14.8807V16.3295C272.56 17.5653 272.773 18.6129 273.199 19.4723C273.632 20.3246 274.233 20.9744 275 21.4219C275.767 21.8622 276.658 22.0824 277.674 22.0824C278.334 22.0824 278.931 21.9901 279.463 21.8054C280.003 21.6136 280.468 21.3295 280.859 20.9531C281.25 20.5696 281.551 20.0937 281.765 19.5256L284.194 20.2074C283.938 21.0312 283.508 21.7557 282.904 22.3807C282.301 22.9986 281.555 23.4815 280.667 23.8295C279.779 24.1705 278.782 24.3409 277.674 24.3409ZM290.788 14.1562V24H288.274V7.63636H290.703V10.1932H290.916C291.299 9.36222 291.882 8.6946 292.663 8.19034C293.444 7.67898 294.453 7.4233 295.689 7.4233C296.797 7.4233 297.766 7.65057 298.597 8.10511C299.428 8.55256 300.074 9.23438 300.536 10.1506C300.998 11.0597 301.228 12.2102 301.228 13.6023V24H298.714V13.7727C298.714 12.4872 298.38 11.4858 297.713 10.7685C297.045 10.044 296.129 9.68182 294.964 9.68182C294.162 9.68182 293.444 9.85582 292.812 10.2038C292.187 10.5518 291.694 11.0597 291.331 11.7273C290.969 12.3949 290.788 13.2045 290.788 14.1562ZM312.939 7.63636V9.76704H304.459V7.63636H312.939ZM306.931 3.71591H309.445V19.3125C309.445 20.0227 309.548 20.5554 309.754 20.9105C309.967 21.2585 310.237 21.4929 310.563 21.6136C310.897 21.7273 311.249 21.7841 311.618 21.7841C311.895 21.7841 312.122 21.7699 312.3 21.7415C312.477 21.706 312.619 21.6776 312.726 21.6562L313.237 23.9148C313.067 23.9787 312.829 24.0426 312.524 24.1065C312.218 24.1776 311.831 24.2131 311.362 24.2131C310.652 24.2131 309.956 24.0604 309.274 23.755C308.6 23.4496 308.039 22.9844 307.591 22.3594C307.151 21.7344 306.931 20.946 306.931 19.9943V3.71591ZM327.034 17.3097V7.63636H329.548V24H327.034V21.2301H326.863C326.48 22.0611 325.883 22.7678 325.073 23.3501C324.264 23.9254 323.241 24.2131 322.005 24.2131C320.982 24.2131 320.073 23.9893 319.278 23.5419C318.482 23.0874 317.857 22.4055 317.403 21.4964C316.948 20.5803 316.721 19.4261 316.721 18.0341V7.63636H319.235V17.8636C319.235 19.0568 319.569 20.0085 320.237 20.7188C320.911 21.429 321.771 21.7841 322.815 21.7841C323.44 21.7841 324.075 21.6243 324.722 21.3047C325.375 20.9851 325.922 20.495 326.362 19.8345C326.81 19.174 327.034 18.3324 327.034 17.3097ZM340.8 24.3409C339.266 24.3409 337.945 23.9787 336.837 23.2543C335.729 22.5298 334.877 21.532 334.281 20.2607C333.684 18.9893 333.386 17.5369 333.386 15.9034C333.386 14.2415 333.691 12.7749 334.302 11.5036C334.92 10.2251 335.779 9.22727 336.88 8.50994C337.988 7.78551 339.281 7.4233 340.758 7.4233C341.908 7.4233 342.945 7.63636 343.869 8.0625C344.792 8.48864 345.548 9.08523 346.138 9.85227C346.727 10.6193 347.093 11.5142 347.235 12.5369H344.721C344.529 11.7912 344.103 11.1307 343.442 10.5554C342.789 9.97301 341.908 9.68182 340.8 9.68182C339.82 9.68182 338.961 9.9375 338.222 10.4489C337.491 10.9531 336.919 11.6669 336.507 12.5902C336.102 13.5064 335.9 14.5824 335.9 15.8182C335.9 17.0824 336.099 18.1832 336.496 19.1207C336.901 20.0582 337.469 20.7862 338.201 21.3047C338.94 21.8232 339.806 22.0824 340.8 22.0824C341.454 22.0824 342.047 21.9688 342.58 21.7415C343.112 21.5142 343.563 21.1875 343.933 20.7614C344.302 20.3352 344.565 19.8239 344.721 19.2273H347.235C347.093 20.1932 346.741 21.0632 346.18 21.8374C345.626 22.6044 344.891 23.2152 343.975 23.6697C343.066 24.1172 342.008 24.3409 340.8 24.3409ZM353.254 18.0341L353.212 14.9233H353.723L360.882 7.63636H363.993L356.365 15.3494H356.152L353.254 18.0341ZM350.911 24V2.18182H353.425V24H350.911ZM361.308 24L354.916 15.9034L356.706 14.1562L364.504 24H361.308ZM368.848 30.1364C368.422 30.1364 368.042 30.1009 367.708 30.0298C367.374 29.9659 367.144 29.902 367.016 29.8381L367.655 27.6222C368.266 27.7784 368.806 27.8352 369.274 27.7926C369.743 27.75 370.159 27.5405 370.521 27.1641C370.89 26.7947 371.227 26.1946 371.533 25.3636L372.002 24.0852L365.95 7.63636H368.678L373.195 20.6761H373.365L377.882 7.63636H380.61L373.664 26.3864C373.351 27.2315 372.964 27.9311 372.502 28.4851C372.041 29.0462 371.504 29.4616 370.894 29.7315C370.29 30.0014 369.608 30.1364 368.848 30.1364ZM397.181 24.3835C396.144 24.3835 395.203 24.1882 394.358 23.7976C393.513 23.3999 392.841 22.8281 392.344 22.0824C391.847 21.3295 391.599 20.4205 391.599 19.3551C391.599 18.4176 391.783 17.6577 392.153 17.0753C392.522 16.4858 393.015 16.0241 393.633 15.6903C394.251 15.3565 394.933 15.108 395.679 14.9446C396.432 14.7741 397.188 14.6392 397.948 14.5398C398.942 14.4119 399.748 14.3161 400.366 14.2521C400.991 14.1811 401.446 14.0639 401.73 13.9006C402.021 13.7372 402.167 13.4531 402.167 13.0483V12.9631C402.167 11.9119 401.879 11.0952 401.304 10.5128C400.736 9.9304 399.873 9.6392 398.715 9.6392C397.515 9.6392 396.574 9.90199 395.892 10.4276C395.21 10.9531 394.731 11.5142 394.454 12.1108L392.067 11.2585C392.493 10.2642 393.062 9.49006 393.772 8.93608C394.489 8.375 395.27 7.98437 396.116 7.7642C396.968 7.53693 397.806 7.4233 398.63 7.4233C399.155 7.4233 399.759 7.48722 400.441 7.61506C401.13 7.73579 401.794 7.98793 402.433 8.37145C403.079 8.75497 403.616 9.33381 404.042 10.108C404.468 10.8821 404.681 11.919 404.681 13.2188V24H402.167V21.7841H402.039C401.868 22.1392 401.584 22.5192 401.187 22.924C400.789 23.3288 400.26 23.6733 399.599 23.9574C398.939 24.2415 398.133 24.3835 397.181 24.3835ZM397.564 22.125C398.559 22.125 399.397 21.9297 400.079 21.5391C400.768 21.1484 401.286 20.6442 401.634 20.0263C401.989 19.4084 402.167 18.7585 402.167 18.0767V15.7756C402.06 15.9034 401.826 16.0206 401.464 16.1271C401.108 16.2266 400.697 16.3153 400.228 16.3935C399.766 16.4645 399.315 16.5284 398.875 16.5852C398.442 16.6349 398.09 16.6776 397.82 16.7131C397.167 16.7983 396.556 16.9368 395.988 17.1286C395.427 17.3132 394.972 17.5937 394.624 17.9702C394.283 18.3395 394.113 18.8437 394.113 19.483C394.113 20.3565 394.436 21.017 395.082 21.4645C395.736 21.9048 396.563 22.125 397.564 22.125ZM418.048 24V2.18182H425.676C427.196 2.18182 428.45 2.4446 429.437 2.97017C430.424 3.48864 431.159 4.18821 431.642 5.06889C432.125 5.94247 432.366 6.91193 432.366 7.97727C432.366 8.91477 432.2 9.68892 431.866 10.2997C431.539 10.9105 431.106 11.3935 430.566 11.7486C430.033 12.1037 429.455 12.3665 428.83 12.5369V12.75C429.497 12.7926 430.168 13.027 430.843 13.4531C431.518 13.8793 432.082 14.4901 432.537 15.2855C432.991 16.081 433.219 17.054 433.219 18.2045C433.219 19.2983 432.97 20.282 432.473 21.1555C431.976 22.0291 431.191 22.7216 430.119 23.233C429.046 23.7443 427.651 24 425.932 24H418.048ZM420.69 21.6562H425.932C427.658 21.6562 428.883 21.3224 429.607 20.6548C430.339 19.9801 430.705 19.1634 430.705 18.2045C430.705 17.4659 430.516 16.7841 430.14 16.1591C429.763 15.527 429.227 15.0227 428.531 14.6463C427.835 14.2628 427.011 14.071 426.06 14.071H420.69V21.6562ZM420.69 11.7699H425.591C426.386 11.7699 427.104 11.6136 427.743 11.3011C428.389 10.9886 428.901 10.5483 429.277 9.98011C429.661 9.41193 429.852 8.74432 429.852 7.97727C429.852 7.01847 429.518 6.20526 428.851 5.53764C428.183 4.86293 427.125 4.52557 425.676 4.52557H420.69V11.7699ZM447.532 17.3097V7.63636H450.046V24H447.532V21.2301H447.361C446.978 22.0611 446.381 22.7678 445.571 23.3501C444.762 23.9254 443.739 24.2131 442.503 24.2131C441.48 24.2131 440.571 23.9893 439.776 23.5419C438.98 23.0874 438.355 22.4055 437.901 21.4964C437.446 20.5803 437.219 19.4261 437.219 18.0341V7.63636H439.733V17.8636C439.733 19.0568 440.067 20.0085 440.735 20.7188C441.409 21.429 442.269 21.7841 443.313 21.7841C443.938 21.7841 444.574 21.6243 445.22 21.3047C445.873 20.9851 446.42 20.495 446.86 19.8345C447.308 19.174 447.532 18.3324 447.532 17.3097ZM454.651 24V7.63636H457.08V10.108H457.25C457.548 9.2983 458.088 8.64134 458.869 8.13707C459.651 7.63281 460.531 7.38068 461.512 7.38068C461.696 7.38068 461.927 7.38423 462.204 7.39133C462.481 7.39844 462.691 7.40909 462.833 7.4233V9.98011C462.747 9.95881 462.552 9.92685 462.247 9.88423C461.948 9.83452 461.632 9.80966 461.298 9.80966C460.503 9.80966 459.793 9.97656 459.168 10.3104C458.55 10.6371 458.06 11.0916 457.698 11.674C457.343 12.2493 457.165 12.9062 457.165 13.6449V24H454.651ZM476.125 17.3097V7.63636H478.64V24H476.125V21.2301H475.955C475.571 22.0611 474.975 22.7678 474.165 23.3501C473.355 23.9254 472.333 24.2131 471.097 24.2131C470.074 24.2131 469.165 23.9893 468.37 23.5419C467.574 23.0874 466.949 22.4055 466.495 21.4964C466.04 20.5803 465.813 19.4261 465.813 18.0341V7.63636H468.327V17.8636C468.327 19.0568 468.661 20.0085 469.328 20.7188C470.003 21.429 470.863 21.7841 471.907 21.7841C472.532 21.7841 473.167 21.6243 473.814 21.3047C474.467 20.9851 475.014 20.495 475.454 19.8345C475.902 19.174 476.125 18.3324 476.125 17.3097ZM485.759 14.1562V24H483.244V7.63636H485.673V10.1932H485.887C486.27 9.36222 486.852 8.6946 487.634 8.19034C488.415 7.67898 489.423 7.4233 490.659 7.4233C491.767 7.4233 492.737 7.65057 493.568 8.10511C494.399 8.55256 495.045 9.23438 495.507 10.1506C495.968 11.0597 496.199 12.2102 496.199 13.6023V24H493.685V13.7727C493.685 12.4872 493.351 11.4858 492.683 10.7685C492.016 10.044 491.1 9.68182 489.935 9.68182C489.132 9.68182 488.415 9.85582 487.783 10.2038C487.158 10.5518 486.664 11.0597 486.302 11.7273C485.94 12.3949 485.759 13.2045 485.759 14.1562ZM506.972 24.3409C505.609 24.3409 504.405 23.9964 503.361 23.3075C502.317 22.6115 501.5 21.6314 500.911 20.3672C500.321 19.0959 500.026 17.5938 500.026 15.8608C500.026 14.142 500.321 12.6506 500.911 11.3864C501.5 10.1222 502.32 9.1456 503.371 8.45668C504.423 7.76776 505.637 7.4233 507.015 7.4233C508.08 7.4233 508.922 7.60085 509.54 7.95597C510.165 8.30398 510.641 8.7017 510.967 9.14915C511.301 9.58949 511.56 9.9517 511.745 10.2358H511.958V2.18182H514.472V24H512.043V21.4858H511.745C511.56 21.7841 511.298 22.1605 510.957 22.6151C510.616 23.0625 510.129 23.4638 509.497 23.8189C508.865 24.1669 508.023 24.3409 506.972 24.3409ZM507.313 22.0824C508.322 22.0824 509.174 21.8196 509.87 21.294C510.566 20.7614 511.095 20.0263 511.457 19.0888C511.82 18.1442 512.001 17.054 512.001 15.8182C512.001 14.5966 511.823 13.5277 511.468 12.6115C511.113 11.6882 510.587 10.9709 509.891 10.4595C509.195 9.94105 508.336 9.68182 507.313 9.68182C506.248 9.68182 505.36 9.95526 504.65 10.5021C503.947 11.0419 503.418 11.777 503.062 12.7074C502.714 13.6307 502.54 14.6676 502.54 15.8182C502.54 16.983 502.718 18.0412 503.073 18.9929C503.435 19.9375 503.968 20.6903 504.671 21.2514C505.381 21.8054 506.262 22.0824 507.313 22.0824ZM519.426 24V7.63636H521.94V24H519.426ZM520.705 4.90909C520.214 4.90909 519.792 4.74219 519.437 4.40838C519.089 4.07457 518.915 3.6733 518.915 3.20455C518.915 2.7358 519.089 2.33452 519.437 2.00071C519.792 1.6669 520.214 1.5 520.705 1.5C521.195 1.5 521.614 1.6669 521.962 2.00071C522.317 2.33452 522.494 2.7358 522.494 3.20455C522.494 3.6733 522.317 4.07457 521.962 4.40838C521.614 4.74219 521.195 4.90909 520.705 4.90909ZM534.983 30.1364V7.63636H537.412V10.2358H537.71C537.895 9.9517 538.15 9.58949 538.477 9.14915C538.811 8.7017 539.287 8.30398 539.905 7.95597C540.53 7.60085 541.375 7.4233 542.44 7.4233C543.818 7.4233 545.032 7.76776 546.084 8.45668C547.135 9.1456 547.955 10.1222 548.545 11.3864C549.134 12.6506 549.429 14.142 549.429 15.8608C549.429 17.5938 549.134 19.0959 548.545 20.3672C547.955 21.6314 547.138 22.6115 546.094 23.3075C545.05 23.9964 543.846 24.3409 542.483 24.3409C541.432 24.3409 540.59 24.1669 539.958 23.8189C539.326 23.4638 538.839 23.0625 538.498 22.6151C538.157 22.1605 537.895 21.7841 537.71 21.4858H537.497V30.1364H534.983ZM537.454 15.8182C537.454 17.054 537.635 18.1442 537.998 19.0888C538.36 20.0263 538.889 20.7614 539.585 21.294C540.281 21.8196 541.133 22.0824 542.142 22.0824C543.193 22.0824 544.07 21.8054 544.773 21.2514C545.483 20.6903 546.016 19.9375 546.371 18.9929C546.733 18.0412 546.915 16.983 546.915 15.8182C546.915 14.6676 546.737 13.6307 546.382 12.7074C546.034 11.777 545.505 11.0419 544.795 10.5021C544.091 9.95526 543.207 9.68182 542.142 9.68182C541.119 9.68182 540.26 9.94105 539.564 10.4595C538.868 10.9709 538.342 11.6882 537.987 12.6115C537.632 13.5277 537.454 14.5966 537.454 15.8182ZM558.079 24.3835C557.042 24.3835 556.101 24.1882 555.256 23.7976C554.411 23.3999 553.74 22.8281 553.243 22.0824C552.746 21.3295 552.497 20.4205 552.497 19.3551C552.497 18.4176 552.682 17.6577 553.051 17.0753C553.42 16.4858 553.914 16.0241 554.532 15.6903C555.15 15.3565 555.831 15.108 556.577 14.9446C557.33 14.7741 558.086 14.6392 558.846 14.5398C559.841 14.4119 560.647 14.3161 561.265 14.2521C561.89 14.1811 562.344 14.0639 562.628 13.9006C562.92 13.7372 563.065 13.4531 563.065 13.0483V12.9631C563.065 11.9119 562.778 11.0952 562.202 10.5128C561.634 9.9304 560.771 9.6392 559.613 9.6392C558.413 9.6392 557.472 9.90199 556.79 10.4276C556.108 10.9531 555.629 11.5142 555.352 12.1108L552.966 11.2585C553.392 10.2642 553.96 9.49006 554.67 8.93608C555.388 8.375 556.169 7.98437 557.014 7.7642C557.866 7.53693 558.704 7.4233 559.528 7.4233C560.054 7.4233 560.657 7.48722 561.339 7.61506C562.028 7.73579 562.692 7.98793 563.331 8.37145C563.978 8.75497 564.514 9.33381 564.94 10.108C565.366 10.8821 565.579 11.919 565.579 13.2188V24H563.065V21.7841H562.937C562.767 22.1392 562.483 22.5192 562.085 22.924C561.687 23.3288 561.158 23.6733 560.498 23.9574C559.837 24.2415 559.031 24.3835 558.079 24.3835ZM558.463 22.125C559.457 22.125 560.295 21.9297 560.977 21.5391C561.666 21.1484 562.184 20.6442 562.532 20.0263C562.888 19.4084 563.065 18.7585 563.065 18.0767V15.7756C562.959 15.9034 562.724 16.0206 562.362 16.1271C562.007 16.2266 561.595 16.3153 561.126 16.3935C560.665 16.4645 560.214 16.5284 559.773 16.5852C559.34 16.6349 558.988 16.6776 558.719 16.7131C558.065 16.7983 557.454 16.9368 556.886 17.1286C556.325 17.3132 555.871 17.5937 555.523 17.9702C555.182 18.3395 555.011 18.8437 555.011 19.483C555.011 20.3565 555.334 21.017 555.981 21.4645C556.634 21.9048 557.461 22.125 558.463 22.125ZM581.759 11.3011L579.501 11.9403C579.359 11.5639 579.149 11.1982 578.872 10.843C578.602 10.4808 578.233 10.1825 577.764 9.94815C577.295 9.71378 576.695 9.59659 575.964 9.59659C574.962 9.59659 574.128 9.82741 573.46 10.2891C572.8 10.7436 572.469 11.3224 572.469 12.0256C572.469 12.6506 572.697 13.1442 573.151 13.5064C573.606 13.8686 574.316 14.1705 575.282 14.4119L577.711 15.0085C579.174 15.3636 580.264 15.907 580.982 16.6385C581.699 17.3629 582.058 18.2969 582.058 19.4403C582.058 20.3778 581.788 21.2159 581.248 21.9545C580.715 22.6932 579.969 23.2756 579.011 23.7017C578.052 24.1278 576.937 24.3409 575.665 24.3409C573.996 24.3409 572.615 23.9787 571.521 23.2543C570.428 22.5298 569.735 21.4716 569.444 20.0795L571.83 19.483C572.058 20.3636 572.487 21.0241 573.119 21.4645C573.759 21.9048 574.593 22.125 575.623 22.125C576.795 22.125 577.725 21.8764 578.414 21.3793C579.11 20.875 579.458 20.2713 579.458 19.5682C579.458 19 579.259 18.5241 578.862 18.1406C578.464 17.75 577.853 17.4588 577.029 17.267L574.302 16.6278C572.803 16.2727 571.702 15.7223 570.999 14.9766C570.303 14.2237 569.955 13.2827 569.955 12.1534C569.955 11.2301 570.214 10.4134 570.733 9.70312C571.259 8.9929 571.972 8.43537 572.874 8.03054C573.783 7.62571 574.813 7.4233 575.964 7.4233C577.583 7.4233 578.854 7.77841 579.778 8.48864C580.708 9.19886 581.369 10.1364 581.759 11.3011ZM590.657 24.3835C589.621 24.3835 588.68 24.1882 587.834 23.7976C586.989 23.3999 586.318 22.8281 585.821 22.0824C585.324 21.3295 585.075 20.4205 585.075 19.3551C585.075 18.4176 585.26 17.6577 585.629 17.0753C585.998 16.4858 586.492 16.0241 587.11 15.6903C587.728 15.3565 588.41 15.108 589.155 14.9446C589.908 14.7741 590.665 14.6392 591.425 14.5398C592.419 14.4119 593.225 14.3161 593.843 14.2521C594.468 14.1811 594.922 14.0639 595.206 13.9006C595.498 13.7372 595.643 13.4531 595.643 13.0483V12.9631C595.643 11.9119 595.356 11.0952 594.78 10.5128C594.212 9.9304 593.349 9.6392 592.192 9.6392C590.991 9.6392 590.05 9.90199 589.368 10.4276C588.687 10.9531 588.207 11.5142 587.93 12.1108L585.544 11.2585C585.97 10.2642 586.538 9.49006 587.248 8.93608C587.966 8.375 588.747 7.98437 589.592 7.7642C590.444 7.53693 591.282 7.4233 592.106 7.4233C592.632 7.4233 593.236 7.48722 593.917 7.61506C594.606 7.73579 595.27 7.98793 595.91 8.37145C596.556 8.75497 597.092 9.33381 597.518 10.108C597.944 10.8821 598.157 11.919 598.157 13.2188V24H595.643V21.7841H595.515C595.345 22.1392 595.061 22.5192 594.663 22.924C594.265 23.3288 593.736 23.6733 593.076 23.9574C592.415 24.2415 591.609 24.3835 590.657 24.3835ZM591.041 22.125C592.035 22.125 592.873 21.9297 593.555 21.5391C594.244 21.1484 594.763 20.6442 595.111 20.0263C595.466 19.4084 595.643 18.7585 595.643 18.0767V15.7756C595.537 15.9034 595.302 16.0206 594.94 16.1271C594.585 16.2266 594.173 16.3153 593.704 16.3935C593.243 16.4645 592.792 16.5284 592.351 16.5852C591.918 16.6349 591.567 16.6776 591.297 16.7131C590.643 16.7983 590.032 16.9368 589.464 17.1286C588.903 17.3132 588.449 17.5937 588.101 17.9702C587.76 18.3395 587.589 18.8437 587.589 19.483C587.589 20.3565 587.912 21.017 588.559 21.4645C589.212 21.9048 590.04 22.125 591.041 22.125ZM605.261 14.1562V24H602.746V7.63636H605.175V10.1932H605.388C605.772 9.36222 606.354 8.6946 607.136 8.19034C607.917 7.67898 608.925 7.4233 610.161 7.4233C611.269 7.4233 612.239 7.65057 613.07 8.10511C613.901 8.55256 614.547 9.23438 615.009 10.1506C615.47 11.0597 615.701 12.2102 615.701 13.6023V24H613.187V13.7727C613.187 12.4872 612.853 11.4858 612.185 10.7685C611.518 10.044 610.602 9.68182 609.437 9.68182C608.634 9.68182 607.917 9.85582 607.285 10.2038C606.66 10.5518 606.166 11.0597 605.804 11.7273C605.442 12.3949 605.261 13.2045 605.261 14.1562ZM626.474 24.3409C625.111 24.3409 623.907 23.9964 622.863 23.3075C621.819 22.6115 621.002 21.6314 620.412 20.3672C619.823 19.0959 619.528 17.5938 619.528 15.8608C619.528 14.142 619.823 12.6506 620.412 11.3864C621.002 10.1222 621.822 9.1456 622.873 8.45668C623.925 7.76776 625.139 7.4233 626.517 7.4233C627.582 7.4233 628.424 7.60085 629.042 7.95597C629.667 8.30398 630.143 8.7017 630.469 9.14915C630.803 9.58949 631.062 9.9517 631.247 10.2358H631.46V2.18182H633.974V24H631.545V21.4858H631.247C631.062 21.7841 630.8 22.1605 630.459 22.6151C630.118 23.0625 629.631 23.4638 628.999 23.8189C628.367 24.1669 627.525 24.3409 626.474 24.3409ZM626.815 22.0824C627.824 22.0824 628.676 21.8196 629.372 21.294C630.068 20.7614 630.597 20.0263 630.959 19.0888C631.322 18.1442 631.503 17.054 631.503 15.8182C631.503 14.5966 631.325 13.5277 630.97 12.6115C630.615 11.6882 630.089 10.9709 629.393 10.4595C628.697 9.94105 627.838 9.68182 626.815 9.68182C625.75 9.68182 624.862 9.95526 624.152 10.5021C623.449 11.0419 622.92 11.777 622.564 12.7074C622.216 13.6307 622.042 14.6676 622.042 15.8182C622.042 16.983 622.22 18.0412 622.575 18.9929C622.937 19.9375 623.47 20.6903 624.173 21.2514C624.883 21.8054 625.764 22.0824 626.815 22.0824ZM645.576 24.3409C644.099 24.3409 642.802 23.9893 641.687 23.2862C640.579 22.5831 639.713 21.5994 639.088 20.3352C638.47 19.071 638.161 17.5937 638.161 15.9034C638.161 14.1989 638.47 12.7109 639.088 11.4396C639.713 10.1683 640.579 9.18111 641.687 8.47798C642.802 7.77486 644.099 7.4233 645.576 7.4233C647.053 7.4233 648.346 7.77486 649.454 8.47798C650.569 9.18111 651.435 10.1683 652.053 11.4396C652.678 12.7109 652.991 14.1989 652.991 15.9034C652.991 17.5937 652.678 19.071 652.053 20.3352C651.435 21.5994 650.569 22.5831 649.454 23.2862C648.346 23.9893 647.053 24.3409 645.576 24.3409ZM645.576 22.0824C646.698 22.0824 647.621 21.7947 648.346 21.2195C649.07 20.6442 649.606 19.8878 649.954 18.9503C650.302 18.0128 650.476 16.9972 650.476 15.9034C650.476 14.8097 650.302 13.7905 649.954 12.8459C649.606 11.9013 649.07 11.1378 648.346 10.5554C647.621 9.97301 646.698 9.68182 645.576 9.68182C644.454 9.68182 643.53 9.97301 642.806 10.5554C642.081 11.1378 641.545 11.9013 641.197 12.8459C640.849 13.7905 640.675 14.8097 640.675 15.9034C640.675 16.9972 640.849 18.0128 641.197 18.9503C641.545 19.8878 642.081 20.6442 642.806 21.2195C643.53 21.7947 644.454 22.0824 645.576 22.0824ZM665.266 30.1364V7.63636H667.695V10.2358H667.993C668.178 9.9517 668.434 9.58949 668.76 9.14915C669.094 8.7017 669.57 8.30398 670.188 7.95597C670.813 7.60085 671.658 7.4233 672.723 7.4233C674.101 7.4233 675.316 7.76776 676.367 8.45668C677.418 9.1456 678.238 10.1222 678.828 11.3864C679.417 12.6506 679.712 14.142 679.712 15.8608C679.712 17.5938 679.417 19.0959 678.828 20.3672C678.238 21.6314 677.422 22.6115 676.377 23.3075C675.333 23.9964 674.13 24.3409 672.766 24.3409C671.715 24.3409 670.873 24.1669 670.241 23.8189C669.609 23.4638 669.123 23.0625 668.782 22.6151C668.441 22.1605 668.178 21.7841 667.993 21.4858H667.78V30.1364H665.266ZM667.738 15.8182C667.738 17.054 667.919 18.1442 668.281 19.0888C668.643 20.0263 669.172 20.7614 669.868 21.294C670.564 21.8196 671.417 22.0824 672.425 22.0824C673.476 22.0824 674.353 21.8054 675.056 21.2514C675.767 20.6903 676.299 19.9375 676.654 18.9929C677.017 18.0412 677.198 16.983 677.198 15.8182C677.198 14.6676 677.02 13.6307 676.665 12.7074C676.317 11.777 675.788 11.0419 675.078 10.5021C674.375 9.95526 673.49 9.68182 672.425 9.68182C671.402 9.68182 670.543 9.94105 669.847 10.4595C669.151 10.9709 668.625 11.6882 668.27 12.6115C667.915 13.5277 667.738 14.5966 667.738 15.8182ZM690.195 24.3409C688.718 24.3409 687.422 23.9893 686.306 23.2862C685.199 22.5831 684.332 21.5994 683.707 20.3352C683.089 19.071 682.78 17.5937 682.78 15.9034C682.78 14.1989 683.089 12.7109 683.707 11.4396C684.332 10.1683 685.199 9.18111 686.306 8.47798C687.422 7.77486 688.718 7.4233 690.195 7.4233C691.672 7.4233 692.965 7.77486 694.073 8.47798C695.188 9.18111 696.054 10.1683 696.672 11.4396C697.297 12.7109 697.61 14.1989 697.61 15.9034C697.61 17.5937 697.297 19.071 696.672 20.3352C696.054 21.5994 695.188 22.5831 694.073 23.2862C692.965 23.9893 691.672 24.3409 690.195 24.3409ZM690.195 22.0824C691.317 22.0824 692.24 21.7947 692.965 21.2195C693.689 20.6442 694.225 19.8878 694.574 18.9503C694.922 18.0128 695.096 16.9972 695.096 15.9034C695.096 14.8097 694.922 13.7905 694.574 12.8459C694.225 11.9013 693.689 11.1378 692.965 10.5554C692.24 9.97301 691.317 9.68182 690.195 9.68182C689.073 9.68182 688.15 9.97301 687.425 10.5554C686.701 11.1378 686.164 11.9013 685.816 12.8459C685.468 13.7905 685.294 14.8097 685.294 15.9034C685.294 16.9972 685.468 18.0128 685.816 18.9503C686.164 19.8878 686.701 20.6442 687.425 21.2195C688.15 21.7947 689.073 22.0824 690.195 22.0824ZM701.448 24V7.63636H703.877V10.108H704.047C704.345 9.2983 704.885 8.64134 705.666 8.13707C706.448 7.63281 707.328 7.38068 708.308 7.38068C708.493 7.38068 708.724 7.38423 709.001 7.39133C709.278 7.39844 709.487 7.40909 709.629 7.4233V9.98011C709.544 9.95881 709.349 9.92685 709.044 9.88423C708.745 9.83452 708.429 9.80966 708.095 9.80966C707.3 9.80966 706.59 9.97656 705.965 10.3104C705.347 10.6371 704.857 11.0916 704.494 11.674C704.139 12.2493 703.962 12.9062 703.962 13.6449V24H701.448ZM260.727 45C260.492 44.2827 260.183 43.6399 259.8 43.0717C259.423 42.4964 258.972 42.0064 258.447 41.6016C257.928 41.1967 257.339 40.8878 256.678 40.6747C256.018 40.4616 255.294 40.3551 254.505 40.3551C253.213 40.3551 252.037 40.6889 250.979 41.3565C249.921 42.0241 249.079 43.0078 248.454 44.3075C247.829 45.6072 247.517 47.2017 247.517 49.0909C247.517 50.9801 247.833 52.5746 248.465 53.8743C249.097 55.174 249.953 56.1577 251.032 56.8253C252.112 57.4929 253.326 57.8267 254.676 57.8267C255.926 57.8267 257.026 57.5604 257.978 57.0277C258.937 56.4879 259.683 55.728 260.215 54.7479C260.755 53.7607 261.025 52.5994 261.025 51.2642L261.835 51.4347H255.272V49.0909H263.582V51.4347C263.582 53.2315 263.198 54.794 262.431 56.1222C261.671 57.4503 260.62 58.4801 259.278 59.2116C257.943 59.9361 256.409 60.2983 254.676 60.2983C252.744 60.2983 251.046 59.8438 249.583 58.9347C248.127 58.0256 246.991 56.733 246.174 55.0568C245.365 53.3807 244.96 51.392 244.96 49.0909C244.96 47.3651 245.191 45.8132 245.652 44.4354C246.121 43.0504 246.781 41.8714 247.634 40.8984C248.486 39.9254 249.494 39.1797 250.659 38.6612C251.824 38.1428 253.106 37.8835 254.505 37.8835C255.656 37.8835 256.728 38.0575 257.722 38.4055C258.724 38.7464 259.615 39.233 260.396 39.8651C261.185 40.4901 261.842 41.2393 262.367 42.1129C262.893 42.9794 263.255 43.9418 263.454 45H260.727ZM272.581 60.3835C271.544 60.3835 270.603 60.1882 269.758 59.7976C268.913 59.3999 268.242 58.8281 267.745 58.0824C267.248 57.3295 266.999 56.4205 266.999 55.3551C266.999 54.4176 267.184 53.6577 267.553 53.0753C267.922 52.4858 268.416 52.0241 269.034 51.6903C269.652 51.3565 270.333 51.108 271.079 50.9446C271.832 50.7741 272.588 50.6392 273.348 50.5398C274.343 50.4119 275.149 50.3161 275.767 50.2521C276.392 50.1811 276.846 50.0639 277.13 49.9006C277.422 49.7372 277.567 49.4531 277.567 49.0483V48.9631C277.567 47.9119 277.279 47.0952 276.704 46.5128C276.136 45.9304 275.273 45.6392 274.115 45.6392C272.915 45.6392 271.974 45.902 271.292 46.4276C270.61 46.9531 270.131 47.5142 269.854 48.1108L267.468 47.2585C267.894 46.2642 268.462 45.4901 269.172 44.9361C269.89 44.375 270.671 43.9844 271.516 43.7642C272.368 43.5369 273.206 43.4233 274.03 43.4233C274.556 43.4233 275.159 43.4872 275.841 43.6151C276.53 43.7358 277.194 43.9879 277.833 44.3714C278.48 44.755 279.016 45.3338 279.442 46.108C279.868 46.8821 280.081 47.919 280.081 49.2188V60H277.567V57.7841H277.439C277.269 58.1392 276.985 58.5192 276.587 58.924C276.189 59.3288 275.66 59.6733 275 59.9574C274.339 60.2415 273.533 60.3835 272.581 60.3835ZM272.965 58.125C273.959 58.125 274.797 57.9297 275.479 57.5391C276.168 57.1484 276.686 56.6442 277.034 56.0263C277.39 55.4084 277.567 54.7585 277.567 54.0767V51.7756C277.461 51.9034 277.226 52.0206 276.864 52.1271C276.509 52.2266 276.097 52.3153 275.628 52.3935C275.167 52.4645 274.716 52.5284 274.275 52.5852C273.842 52.6349 273.49 52.6776 273.221 52.7131C272.567 52.7983 271.956 52.9368 271.388 53.1286C270.827 53.3132 270.373 53.5937 270.025 53.9702C269.684 54.3395 269.513 54.8437 269.513 55.483C269.513 56.3565 269.836 57.017 270.483 57.4645C271.136 57.9048 271.963 58.125 272.965 58.125ZM287.184 38.1818V60H284.67V38.1818H287.184ZM298.65 60.3409C297.074 60.3409 295.713 59.9929 294.57 59.2969C293.434 58.5938 292.556 57.6136 291.939 56.3565C291.328 55.0923 291.022 53.6222 291.022 51.946C291.022 50.2699 291.328 48.7926 291.939 47.5142C292.556 46.2287 293.416 45.2273 294.517 44.5099C295.625 43.7855 296.917 43.4233 298.395 43.4233C299.247 43.4233 300.088 43.5653 300.919 43.8494C301.75 44.1335 302.507 44.5952 303.189 45.2344C303.87 45.8665 304.414 46.7045 304.819 47.7486C305.223 48.7926 305.426 50.0781 305.426 51.6051V52.6705H292.812V50.4972H302.869C302.869 49.5739 302.684 48.75 302.315 48.0256C301.953 47.3011 301.434 46.7294 300.76 46.3104C300.092 45.8913 299.304 45.6818 298.395 45.6818C297.393 45.6818 296.527 45.9304 295.795 46.4276C295.071 46.9176 294.513 47.5568 294.123 48.3452C293.732 49.1335 293.537 49.9787 293.537 50.8807V52.3295C293.537 53.5653 293.75 54.6129 294.176 55.4723C294.609 56.3246 295.209 56.9744 295.976 57.4219C296.743 57.8622 297.635 58.0824 298.65 58.0824C299.311 58.0824 299.907 57.9901 300.44 57.8054C300.98 57.6136 301.445 57.3295 301.836 56.9531C302.226 56.5696 302.528 56.0937 302.741 55.5256L305.17 56.2074C304.914 57.0312 304.485 57.7557 303.881 58.3807C303.277 58.9986 302.532 59.4815 301.644 59.8295C300.756 60.1705 299.758 60.3409 298.65 60.3409ZM320.841 47.3011L318.583 47.9403C318.441 47.5639 318.231 47.1982 317.954 46.843C317.684 46.4808 317.315 46.1825 316.846 45.9482C316.377 45.7138 315.777 45.5966 315.046 45.5966C314.044 45.5966 313.21 45.8274 312.542 46.2891C311.882 46.7436 311.551 47.3224 311.551 48.0256C311.551 48.6506 311.779 49.1442 312.233 49.5064C312.688 49.8686 313.398 50.1705 314.364 50.4119L316.793 51.0085C318.256 51.3636 319.346 51.907 320.064 52.6385C320.781 53.3629 321.14 54.2969 321.14 55.4403C321.14 56.3778 320.87 57.2159 320.33 57.9545C319.797 58.6932 319.051 59.2756 318.093 59.7017C317.134 60.1278 316.019 60.3409 314.748 60.3409C313.078 60.3409 311.697 59.9787 310.603 59.2543C309.51 58.5298 308.817 57.4716 308.526 56.0795L310.912 55.483C311.14 56.3636 311.569 57.0241 312.201 57.4645C312.841 57.9048 313.675 58.125 314.705 58.125C315.877 58.125 316.807 57.8764 317.496 57.3793C318.192 56.875 318.54 56.2713 318.54 55.5682C318.54 55 318.341 54.5241 317.944 54.1406C317.546 53.75 316.935 53.4588 316.111 53.267L313.384 52.6278C311.885 52.2727 310.784 51.7223 310.081 50.9766C309.385 50.2237 309.037 49.2827 309.037 48.1534C309.037 47.2301 309.297 46.4134 309.815 45.7031C310.341 44.9929 311.054 44.4354 311.956 44.0305C312.865 43.6257 313.895 43.4233 315.046 43.4233C316.665 43.4233 317.936 43.7784 318.86 44.4886C319.79 45.1989 320.451 46.1364 320.841 47.3011ZM334.981 66.1364C334.555 66.1364 334.175 66.1009 333.841 66.0298C333.507 65.9659 333.276 65.902 333.149 65.8381L333.788 63.6222C334.399 63.7784 334.938 63.8352 335.407 63.7926C335.876 63.75 336.291 63.5405 336.654 63.1641C337.023 62.7947 337.36 62.1946 337.666 61.3636L338.134 60.0852L332.083 43.6364H334.811L339.328 56.6761H339.498L344.015 43.6364H346.742L339.796 62.3864C339.484 63.2315 339.097 63.9311 338.635 64.4851C338.173 65.0462 337.637 65.4616 337.026 65.7315C336.423 66.0014 335.741 66.1364 334.981 66.1364ZM373.157 38.1818H375.8V52.6278C375.8 54.1193 375.448 55.451 374.745 56.6229C374.049 57.7876 373.065 58.7074 371.794 59.3821C370.523 60.0497 369.031 60.3835 367.319 60.3835C365.608 60.3835 364.116 60.0497 362.845 59.3821C361.574 58.7074 360.586 57.7876 359.883 56.6229C359.187 55.451 358.839 54.1193 358.839 52.6278V38.1818H361.481V52.4148C361.481 53.4801 361.716 54.4283 362.184 55.2592C362.653 56.0831 363.321 56.733 364.187 57.2088C365.061 57.6776 366.105 57.9119 367.319 57.9119C368.534 57.9119 369.578 57.6776 370.452 57.2088C371.325 56.733 371.993 56.0831 372.454 55.2592C372.923 54.4283 373.157 53.4801 373.157 52.4148V38.1818ZM387.382 60.3409C385.848 60.3409 384.527 59.9787 383.419 59.2543C382.311 58.5298 381.459 57.532 380.863 56.2607C380.266 54.9893 379.968 53.5369 379.968 51.9034C379.968 50.2415 380.273 48.7749 380.884 47.5036C381.502 46.2251 382.361 45.2273 383.462 44.5099C384.57 43.7855 385.863 43.4233 387.34 43.4233C388.49 43.4233 389.527 43.6364 390.451 44.0625C391.374 44.4886 392.13 45.0852 392.72 45.8523C393.309 46.6193 393.675 47.5142 393.817 48.5369H391.303C391.111 47.7912 390.685 47.1307 390.025 46.5554C389.371 45.973 388.49 45.6818 387.382 45.6818C386.402 45.6818 385.543 45.9375 384.804 46.4489C384.073 46.9531 383.501 47.6669 383.089 48.5902C382.684 49.5064 382.482 50.5824 382.482 51.8182C382.482 53.0824 382.681 54.1832 383.078 55.1207C383.483 56.0582 384.051 56.7862 384.783 57.3047C385.522 57.8232 386.388 58.0824 387.382 58.0824C388.036 58.0824 388.629 57.9688 389.162 57.7415C389.694 57.5142 390.145 57.1875 390.515 56.7614C390.884 56.3352 391.147 55.8239 391.303 55.2273H393.817C393.675 56.1932 393.324 57.0632 392.762 57.8374C392.208 58.6044 391.473 59.2152 390.557 59.6697C389.648 60.1172 388.59 60.3409 387.382 60.3409ZM397.493 60V43.6364H399.922V46.108H400.092C400.39 45.2983 400.93 44.6413 401.711 44.1371C402.493 43.6328 403.373 43.3807 404.353 43.3807C404.538 43.3807 404.769 43.3842 405.046 43.3913C405.323 43.3984 405.532 43.4091 405.674 43.4233V45.9801C405.589 45.9588 405.394 45.9268 405.088 45.8842C404.79 45.8345 404.474 45.8097 404.14 45.8097C403.345 45.8097 402.635 45.9766 402.01 46.3104C401.392 46.6371 400.902 47.0916 400.539 47.674C400.184 48.2493 400.007 48.9062 400.007 49.6449V60H397.493ZM413.47 60.3835C412.433 60.3835 411.492 60.1882 410.647 59.7976C409.802 59.3999 409.131 58.8281 408.633 58.0824C408.136 57.3295 407.888 56.4205 407.888 55.3551C407.888 54.4176 408.072 53.6577 408.442 53.0753C408.811 52.4858 409.305 52.0241 409.922 51.6903C410.54 51.3565 411.222 51.108 411.968 50.9446C412.721 50.7741 413.477 50.6392 414.237 50.5398C415.231 50.4119 416.037 50.3161 416.655 50.2521C417.28 50.1811 417.735 50.0639 418.019 49.9006C418.31 49.7372 418.456 49.4531 418.456 49.0483V48.9631C418.456 47.9119 418.168 47.0952 417.593 46.5128C417.025 45.9304 416.162 45.6392 415.004 45.6392C413.804 45.6392 412.863 45.902 412.181 46.4276C411.499 46.9531 411.02 47.5142 410.743 48.1108L408.356 47.2585C408.782 46.2642 409.351 45.4901 410.061 44.9361C410.778 44.375 411.559 43.9844 412.405 43.7642C413.257 43.5369 414.095 43.4233 414.919 43.4233C415.444 43.4233 416.048 43.4872 416.73 43.6151C417.419 43.7358 418.083 43.9879 418.722 44.3714C419.368 44.755 419.905 45.3338 420.331 46.108C420.757 46.8821 420.97 47.919 420.97 49.2188V60H418.456V57.7841H418.328C418.157 58.1392 417.873 58.5192 417.476 58.924C417.078 59.3288 416.549 59.6733 415.888 59.9574C415.228 60.2415 414.422 60.3835 413.47 60.3835ZM413.854 58.125C414.848 58.125 415.686 57.9297 416.368 57.5391C417.057 57.1484 417.575 56.6442 417.923 56.0263C418.278 55.4084 418.456 54.7585 418.456 54.0767V51.7756C418.349 51.9034 418.115 52.0206 417.753 52.1271C417.398 52.2266 416.986 52.3153 416.517 52.3935C416.055 52.4645 415.604 52.5284 415.164 52.5852C414.731 52.6349 414.379 52.6776 414.109 52.7131C413.456 52.7983 412.845 52.9368 412.277 53.1286C411.716 53.3132 411.261 53.5937 410.913 53.9702C410.572 54.3395 410.402 54.8437 410.402 55.483C410.402 56.3565 410.725 57.017 411.371 57.4645C412.025 57.9048 412.852 58.125 413.854 58.125ZM428.073 50.1562V60H425.559V43.6364H427.988V46.1932H428.201C428.585 45.3622 429.167 44.6946 429.948 44.1903C430.729 43.679 431.738 43.4233 432.974 43.4233C434.082 43.4233 435.051 43.6506 435.882 44.1051C436.713 44.5526 437.359 45.2344 437.821 46.1506C438.283 47.0597 438.513 48.2102 438.513 49.6023V60H435.999V49.7727C435.999 48.4872 435.665 47.4858 434.998 46.7685C434.33 46.044 433.414 45.6818 432.249 45.6818C431.447 45.6818 430.729 45.8558 430.097 46.2038C429.472 46.5518 428.979 47.0597 428.616 47.7273C428.254 48.3949 428.073 49.2045 428.073 50.1562ZM443.108 60V43.6364H445.622V60H443.108ZM444.386 40.9091C443.896 40.9091 443.474 40.7422 443.118 40.4084C442.77 40.0746 442.596 39.6733 442.596 39.2045C442.596 38.7358 442.77 38.3345 443.118 38.0007C443.474 37.6669 443.896 37.5 444.386 37.5C444.876 37.5 445.295 37.6669 445.643 38.0007C445.998 38.3345 446.176 38.7358 446.176 39.2045C446.176 39.6733 445.998 40.0746 445.643 40.4084C445.295 40.7422 444.876 40.9091 444.386 40.9091ZM455.042 60.3835C454.005 60.3835 453.064 60.1882 452.219 59.7976C451.374 59.3999 450.703 58.8281 450.206 58.0824C449.708 57.3295 449.46 56.4205 449.46 55.3551C449.46 54.4176 449.645 53.6577 450.014 53.0753C450.383 52.4858 450.877 52.0241 451.495 51.6903C452.113 51.3565 452.794 51.108 453.54 50.9446C454.293 50.7741 455.049 50.6392 455.809 50.5398C456.804 50.4119 457.61 50.3161 458.228 50.2521C458.853 50.1811 459.307 50.0639 459.591 49.9006C459.882 49.7372 460.028 49.4531 460.028 49.0483V48.9631C460.028 47.9119 459.74 47.0952 459.165 46.5128C458.597 45.9304 457.734 45.6392 456.576 45.6392C455.376 45.6392 454.435 45.902 453.753 46.4276C453.071 46.9531 452.592 47.5142 452.315 48.1108L449.929 47.2585C450.355 46.2642 450.923 45.4901 451.633 44.9361C452.35 44.375 453.132 43.9844 453.977 43.7642C454.829 43.5369 455.667 43.4233 456.491 43.4233C457.017 43.4233 457.62 43.4872 458.302 43.6151C458.991 43.7358 459.655 43.9879 460.294 44.3714C460.941 44.755 461.477 45.3338 461.903 46.108C462.329 46.8821 462.542 47.919 462.542 49.2188V60H460.028V57.7841H459.9C459.73 58.1392 459.446 58.5192 459.048 58.924C458.65 59.3288 458.121 59.6733 457.461 59.9574C456.8 60.2415 455.994 60.3835 455.042 60.3835ZM455.426 58.125C456.42 58.125 457.258 57.9297 457.94 57.5391C458.629 57.1484 459.147 56.6442 459.495 56.0263C459.85 55.4084 460.028 54.7585 460.028 54.0767V51.7756C459.922 51.9034 459.687 52.0206 459.325 52.1271C458.97 52.2266 458.558 52.3153 458.089 52.3935C457.627 52.4645 457.176 52.5284 456.736 52.5852C456.303 52.6349 455.951 52.6776 455.681 52.7131C455.028 52.7983 454.417 52.9368 453.849 53.1286C453.288 53.3132 452.833 53.5937 452.485 53.9702C452.145 54.3395 451.974 54.8437 451.974 55.483C451.974 56.3565 452.297 57.017 452.944 57.4645C453.597 57.9048 454.424 58.125 455.426 58.125Z" fill="white"/>
</svg>
