<svg width="501" height="195" viewBox="0 0 501 195" fill="none" xmlns="http://www.w3.org/2000/svg">
<path d="M27.7074 75H0.84375V5.18182H27.4347C34.6165 5.18182 40.821 6.57954 46.0483 9.375C51.2983 12.1477 55.3438 16.1477 58.1847 21.375C61.0483 26.5795 62.4801 32.8182 62.4801 40.0909C62.4801 47.3636 61.0597 53.6136 58.2188 58.8409C55.3778 64.0455 51.3551 68.0455 46.1506 70.8409C40.946 73.6136 34.7983 75 27.7074 75ZM19.7983 58.9091H27.0256C30.4801 58.9091 33.4233 58.3523 35.8551 57.2386C38.3097 56.125 40.1733 54.2045 41.446 51.4773C42.7415 48.75 43.3892 44.9545 43.3892 40.0909C43.3892 35.2273 42.7301 31.4318 41.4119 28.7045C40.1165 25.9773 38.2074 24.0568 35.6847 22.9432C33.1847 21.8295 30.1165 21.2727 26.4801 21.2727H19.7983V58.9091ZM96.6136 75.9545C91.0227 75.9545 86.2045 74.8864 82.1591 72.75C78.1364 70.5909 75.0341 67.5 72.8523 63.4773C70.6932 59.4318 69.6136 54.5909 69.6136 48.9545C69.6136 43.5455 70.7045 38.8182 72.8864 34.7727C75.0682 30.7273 78.1477 27.5795 82.125 25.3295C86.1023 23.0795 90.7955 21.9545 96.2045 21.9545C100.159 21.9545 103.739 22.5682 106.943 23.7955C110.148 25.0227 112.886 26.8068 115.159 29.1477C117.432 31.4659 119.182 34.2841 120.409 37.6023C121.636 40.9205 122.25 44.6591 122.25 48.8182V53.1818H75.4773V42.8182H104.932C104.909 41.3182 104.523 40 103.773 38.8636C103.045 37.7045 102.057 36.8068 100.807 36.1705C99.5795 35.5114 98.1818 35.1818 96.6136 35.1818C95.0909 35.1818 93.6932 35.5114 92.4205 36.1705C91.1477 36.8068 90.125 37.6932 89.3523 38.8295C88.6023 39.9659 88.2045 41.2955 88.1591 42.8182V54C88.1591 55.6818 88.5114 57.1818 89.2159 58.5C89.9205 59.8182 90.9318 60.8523 92.25 61.6023C93.5682 62.3523 95.1591 62.7273 97.0227 62.7273C98.3182 62.7273 99.5 62.5455 100.568 62.1818C101.659 61.8182 102.591 61.2955 103.364 60.6136C104.136 59.9091 104.705 59.0682 105.068 58.0909H122.25C121.659 61.7273 120.261 64.8864 118.057 67.5682C115.852 70.2273 112.932 72.2955 109.295 73.7727C105.682 75.2273 101.455 75.9545 96.6136 75.9545ZM149.054 94.6364V22.6364H167.736V31.7727H168.145C168.827 30 169.827 28.375 171.145 26.8977C172.463 25.3977 174.099 24.2045 176.054 23.3182C178.009 22.4091 180.281 21.9545 182.872 21.9545C186.327 21.9545 189.611 22.875 192.724 24.7159C195.861 26.5568 198.406 29.4545 200.361 33.4091C202.338 37.3636 203.327 42.5 203.327 48.8182C203.327 54.8636 202.384 59.875 200.497 63.8523C198.634 67.8295 196.134 70.7955 192.997 72.75C189.884 74.7045 186.463 75.6818 182.736 75.6818C180.281 75.6818 178.088 75.2841 176.156 74.4886C174.247 73.6705 172.611 72.5682 171.247 71.1818C169.906 69.7727 168.872 68.1818 168.145 66.4091H167.872V94.6364H149.054ZM167.463 48.8182C167.463 51.3636 167.793 53.5682 168.452 55.4318C169.134 57.2727 170.088 58.7045 171.315 59.7273C172.565 60.7273 174.054 61.2273 175.781 61.2273C177.509 61.2273 178.974 60.7386 180.179 59.7614C181.406 58.7614 182.338 57.3409 182.974 55.5C183.634 53.6364 183.963 51.4091 183.963 48.8182C183.963 46.2273 183.634 44.0114 182.974 42.1705C182.338 40.3068 181.406 38.8864 180.179 37.9091C178.974 36.9091 177.509 36.4091 175.781 36.4091C174.054 36.4091 172.565 36.9091 171.315 37.9091C170.088 38.8864 169.134 40.3068 168.452 42.1705C167.793 44.0114 167.463 46.2273 167.463 48.8182ZM225.801 75.8182C222.46 75.8182 219.506 75.2727 216.938 74.1818C214.392 73.0682 212.392 71.3864 210.938 69.1364C209.483 66.8864 208.756 64.0227 208.756 60.5455C208.756 57.6818 209.244 55.2386 210.222 53.2159C211.199 51.1705 212.562 49.5 214.312 48.2045C216.062 46.9091 218.097 45.9205 220.415 45.2386C222.756 44.5568 225.278 44.1136 227.983 43.9091C230.915 43.6818 233.267 43.4091 235.04 43.0909C236.835 42.75 238.131 42.2841 238.926 41.6932C239.722 41.0795 240.119 40.2727 240.119 39.2727V39.1364C240.119 37.7727 239.597 36.7273 238.551 36C237.506 35.2727 236.165 34.9091 234.528 34.9091C232.733 34.9091 231.267 35.3068 230.131 36.1023C229.017 36.875 228.347 38.0682 228.119 39.6818H210.801C211.028 36.5 212.04 33.5682 213.835 30.8864C215.653 28.1818 218.301 26.0227 221.778 24.4091C225.256 22.7727 229.597 21.9545 234.801 21.9545C238.551 21.9545 241.915 22.3977 244.892 23.2841C247.869 24.1477 250.403 25.3636 252.494 26.9318C254.585 28.4773 256.176 30.2955 257.267 32.3864C258.381 34.4545 258.938 36.7045 258.938 39.1364V75H241.347V67.6364H240.938C239.892 69.5909 238.619 71.1705 237.119 72.375C235.642 73.5795 233.949 74.4545 232.04 75C230.153 75.5455 228.074 75.8182 225.801 75.8182ZM231.938 63.9545C233.369 63.9545 234.71 63.6591 235.96 63.0682C237.233 62.4773 238.267 61.625 239.062 60.5114C239.858 59.3977 240.256 58.0455 240.256 56.4545V52.0909C239.756 52.2955 239.222 52.4886 238.653 52.6705C238.108 52.8523 237.517 53.0227 236.881 53.1818C236.267 53.3409 235.608 53.4886 234.903 53.625C234.222 53.7614 233.506 53.8864 232.756 54C231.301 54.2273 230.108 54.6023 229.176 55.125C228.267 55.625 227.585 56.25 227.131 57C226.699 57.7273 226.483 58.5455 226.483 59.4545C226.483 60.9091 226.994 62.0227 228.017 62.7955C229.04 63.5682 230.347 63.9545 231.938 63.9545ZM299.156 22.6364V36.2727H264.656V22.6364H299.156ZM271.338 10.0909H290.156V58.1591C290.156 58.8864 290.281 59.5 290.531 60C290.781 60.4773 291.168 60.8409 291.69 61.0909C292.213 61.3182 292.884 61.4318 293.702 61.4318C294.27 61.4318 294.929 61.3636 295.679 61.2273C296.452 61.0909 297.02 60.9773 297.384 60.8864L300.111 74.1136C299.27 74.3636 298.065 74.6705 296.497 75.0341C294.952 75.3977 293.111 75.6364 290.974 75.75C286.656 75.9773 283.031 75.5341 280.099 74.4205C277.168 73.2841 274.963 71.5 273.486 69.0682C272.009 66.6364 271.293 63.5909 271.338 59.9318V10.0909ZM306.835 75V22.6364H325.108V32.5909H325.653C326.608 28.9091 328.119 26.2159 330.188 24.5114C332.278 22.8068 334.722 21.9545 337.517 21.9545C338.335 21.9545 339.142 22.0227 339.938 22.1591C340.756 22.2727 341.54 22.4432 342.29 22.6705V38.7273C341.358 38.4091 340.21 38.1705 338.847 38.0114C337.483 37.8523 336.313 37.7727 335.335 37.7727C333.494 37.7727 331.835 38.1932 330.358 39.0341C328.903 39.8523 327.756 41.0114 326.915 42.5114C326.074 43.9886 325.653 45.7273 325.653 47.7273V75H306.835ZM348.46 75V22.6364H367.278V75H348.46ZM357.869 17.1818C355.324 17.1818 353.142 16.3409 351.324 14.6591C349.506 12.9773 348.597 10.9545 348.597 8.59091C348.597 6.22727 349.506 4.20454 351.324 2.52272C353.142 0.840908 355.324 0 357.869 0C360.438 0 362.619 0.840908 364.415 2.52272C366.233 4.20454 367.142 6.22727 367.142 8.59091C367.142 10.9545 366.233 12.9773 364.415 14.6591C362.619 16.3409 360.438 17.1818 357.869 17.1818ZM391.457 75.8182C388.116 75.8182 385.162 75.2727 382.594 74.1818C380.048 73.0682 378.048 71.3864 376.594 69.1364C375.139 66.8864 374.412 64.0227 374.412 60.5455C374.412 57.6818 374.901 55.2386 375.878 53.2159C376.855 51.1705 378.219 49.5 379.969 48.2045C381.719 46.9091 383.753 45.9205 386.071 45.2386C388.412 44.5568 390.935 44.1136 393.639 43.9091C396.571 43.6818 398.923 43.4091 400.696 43.0909C402.491 42.75 403.787 42.2841 404.582 41.6932C405.378 41.0795 405.776 40.2727 405.776 39.2727V39.1364C405.776 37.7727 405.253 36.7273 404.207 36C403.162 35.2727 401.821 34.9091 400.185 34.9091C398.389 34.9091 396.923 35.3068 395.787 36.1023C394.673 36.875 394.003 38.0682 393.776 39.6818H376.457C376.685 36.5 377.696 33.5682 379.491 30.8864C381.31 28.1818 383.957 26.0227 387.435 24.4091C390.912 22.7727 395.253 21.9545 400.457 21.9545C404.207 21.9545 407.571 22.3977 410.548 23.2841C413.526 24.1477 416.06 25.3636 418.151 26.9318C420.241 28.4773 421.832 30.2955 422.923 32.3864C424.037 34.4545 424.594 36.7045 424.594 39.1364V75H407.003V67.6364H406.594C405.548 69.5909 404.276 71.1705 402.776 72.375C401.298 73.5795 399.605 74.4545 397.696 75C395.81 75.5455 393.73 75.8182 391.457 75.8182ZM397.594 63.9545C399.026 63.9545 400.366 63.6591 401.616 63.0682C402.889 62.4773 403.923 61.625 404.719 60.5114C405.514 59.3977 405.912 58.0455 405.912 56.4545V52.0909C405.412 52.2955 404.878 52.4886 404.31 52.6705C403.764 52.8523 403.173 53.0227 402.537 53.1818C401.923 53.3409 401.264 53.4886 400.56 53.625C399.878 53.7614 399.162 53.8864 398.412 54C396.957 54.2273 395.764 54.6023 394.832 55.125C393.923 55.625 393.241 56.25 392.787 57C392.355 57.7273 392.139 58.5455 392.139 59.4545C392.139 60.9091 392.651 62.0227 393.673 62.7955C394.696 63.5682 396.003 63.9545 397.594 63.9545ZM467.301 75.8182C463.96 75.8182 461.006 75.2727 458.438 74.1818C455.892 73.0682 453.892 71.3864 452.438 69.1364C450.983 66.8864 450.256 64.0227 450.256 60.5455C450.256 57.6818 450.744 55.2386 451.722 53.2159C452.699 51.1705 454.062 49.5 455.812 48.2045C457.562 46.9091 459.597 45.9205 461.915 45.2386C464.256 44.5568 466.778 44.1136 469.483 43.9091C472.415 43.6818 474.767 43.4091 476.54 43.0909C478.335 42.75 479.631 42.2841 480.426 41.6932C481.222 41.0795 481.619 40.2727 481.619 39.2727V39.1364C481.619 37.7727 481.097 36.7273 480.051 36C479.006 35.2727 477.665 34.9091 476.028 34.9091C474.233 34.9091 472.767 35.3068 471.631 36.1023C470.517 36.875 469.847 38.0682 469.619 39.6818H452.301C452.528 36.5 453.54 33.5682 455.335 30.8864C457.153 28.1818 459.801 26.0227 463.278 24.4091C466.756 22.7727 471.097 21.9545 476.301 21.9545C480.051 21.9545 483.415 22.3977 486.392 23.2841C489.369 24.1477 491.903 25.3636 493.994 26.9318C496.085 28.4773 497.676 30.2955 498.767 32.3864C499.881 34.4545 500.438 36.7045 500.438 39.1364V75H482.847V67.6364H482.438C481.392 69.5909 480.119 71.1705 478.619 72.375C477.142 73.5795 475.449 74.4545 473.54 75C471.653 75.5455 469.574 75.8182 467.301 75.8182ZM473.438 63.9545C474.869 63.9545 476.21 63.6591 477.46 63.0682C478.733 62.4773 479.767 61.625 480.562 60.5114C481.358 59.3977 481.756 58.0455 481.756 56.4545V52.0909C481.256 52.2955 480.722 52.4886 480.153 52.6705C479.608 52.8523 479.017 53.0227 478.381 53.1818C477.767 53.3409 477.108 53.4886 476.403 53.625C475.722 53.7614 475.006 53.8864 474.256 54C472.801 54.2273 471.608 54.6023 470.676 55.125C469.767 55.625 469.085 56.25 468.631 57C468.199 57.7273 467.983 58.5455 467.983 59.4545C467.983 60.9091 468.494 62.0227 469.517 62.7955C470.54 63.5682 471.847 63.9545 473.438 63.9545ZM113.007 194.636V122.636H131.689V131.773H132.098C132.78 130 133.78 128.375 135.098 126.898C136.416 125.398 138.053 124.205 140.007 123.318C141.962 122.409 144.234 121.955 146.825 121.955C150.28 121.955 153.564 122.875 156.678 124.716C159.814 126.557 162.359 129.455 164.314 133.409C166.291 137.364 167.28 142.5 167.28 148.818C167.28 154.864 166.337 159.875 164.45 163.852C162.587 167.83 160.087 170.795 156.95 172.75C153.837 174.705 150.416 175.682 146.689 175.682C144.234 175.682 142.041 175.284 140.109 174.489C138.2 173.67 136.564 172.568 135.2 171.182C133.859 169.773 132.825 168.182 132.098 166.409H131.825V194.636H113.007ZM131.416 148.818C131.416 151.364 131.746 153.568 132.405 155.432C133.087 157.273 134.041 158.705 135.268 159.727C136.518 160.727 138.007 161.227 139.734 161.227C141.462 161.227 142.928 160.739 144.132 159.761C145.359 158.761 146.291 157.341 146.928 155.5C147.587 153.636 147.916 151.409 147.916 148.818C147.916 146.227 147.587 144.011 146.928 142.17C146.291 140.307 145.359 138.886 144.132 137.909C142.928 136.909 141.462 136.409 139.734 136.409C138.007 136.409 136.518 136.909 135.268 137.909C134.041 138.886 133.087 140.307 132.405 142.17C131.746 144.011 131.416 146.227 131.416 148.818ZM189.754 175.818C186.413 175.818 183.459 175.273 180.891 174.182C178.345 173.068 176.345 171.386 174.891 169.136C173.436 166.886 172.709 164.023 172.709 160.545C172.709 157.682 173.197 155.239 174.175 153.216C175.152 151.17 176.516 149.5 178.266 148.205C180.016 146.909 182.05 145.92 184.368 145.239C186.709 144.557 189.232 144.114 191.936 143.909C194.868 143.682 197.22 143.409 198.993 143.091C200.788 142.75 202.084 142.284 202.879 141.693C203.675 141.08 204.072 140.273 204.072 139.273V139.136C204.072 137.773 203.55 136.727 202.504 136C201.459 135.273 200.118 134.909 198.482 134.909C196.686 134.909 195.22 135.307 194.084 136.102C192.97 136.875 192.3 138.068 192.072 139.682H174.754C174.982 136.5 175.993 133.568 177.788 130.886C179.607 128.182 182.254 126.023 185.732 124.409C189.209 122.773 193.55 121.955 198.754 121.955C202.504 121.955 205.868 122.398 208.845 123.284C211.822 124.148 214.357 125.364 216.447 126.932C218.538 128.477 220.129 130.295 221.22 132.386C222.334 134.455 222.891 136.705 222.891 139.136V175H205.3V167.636H204.891C203.845 169.591 202.572 171.17 201.072 172.375C199.595 173.58 197.902 174.455 195.993 175C194.107 175.545 192.027 175.818 189.754 175.818ZM195.891 163.955C197.322 163.955 198.663 163.659 199.913 163.068C201.186 162.477 202.22 161.625 203.016 160.511C203.811 159.398 204.209 158.045 204.209 156.455V152.091C203.709 152.295 203.175 152.489 202.607 152.67C202.061 152.852 201.47 153.023 200.834 153.182C200.22 153.341 199.561 153.489 198.857 153.625C198.175 153.761 197.459 153.886 196.709 154C195.254 154.227 194.061 154.602 193.129 155.125C192.22 155.625 191.538 156.25 191.084 157C190.652 157.727 190.436 158.545 190.436 159.455C190.436 160.909 190.947 162.023 191.97 162.795C192.993 163.568 194.3 163.955 195.891 163.955ZM263.109 122.636V136.273H228.609V122.636H263.109ZM235.291 110.091H254.109V158.159C254.109 158.886 254.234 159.5 254.484 160C254.734 160.477 255.121 160.841 255.643 161.091C256.166 161.318 256.837 161.432 257.655 161.432C258.223 161.432 258.882 161.364 259.632 161.227C260.405 161.091 260.973 160.977 261.337 160.886L264.064 174.114C263.223 174.364 262.018 174.67 260.45 175.034C258.905 175.398 257.064 175.636 254.928 175.75C250.609 175.977 246.984 175.534 244.053 174.42C241.121 173.284 238.916 171.5 237.439 169.068C235.962 166.636 235.246 163.591 235.291 159.932V110.091ZM270.788 175V122.636H289.061V132.591H289.607C290.561 128.909 292.072 126.216 294.141 124.511C296.232 122.807 298.675 121.955 301.47 121.955C302.288 121.955 303.095 122.023 303.891 122.159C304.709 122.273 305.493 122.443 306.243 122.67V138.727C305.311 138.409 304.163 138.17 302.8 138.011C301.436 137.852 300.266 137.773 299.288 137.773C297.447 137.773 295.788 138.193 294.311 139.034C292.857 139.852 291.709 141.011 290.868 142.511C290.027 143.989 289.607 145.727 289.607 147.727V175H270.788ZM312.413 175V122.636H331.232V175H312.413ZM321.822 117.182C319.277 117.182 317.095 116.341 315.277 114.659C313.459 112.977 312.55 110.955 312.55 108.591C312.55 106.227 313.459 104.205 315.277 102.523C317.095 100.841 319.277 100 321.822 100C324.391 100 326.572 100.841 328.368 102.523C330.186 104.205 331.095 106.227 331.095 108.591C331.095 110.955 330.186 112.977 328.368 114.659C326.572 116.341 324.391 117.182 321.822 117.182ZM355.411 175.818C352.07 175.818 349.115 175.273 346.547 174.182C344.001 173.068 342.001 171.386 340.547 169.136C339.092 166.886 338.365 164.023 338.365 160.545C338.365 157.682 338.854 155.239 339.831 153.216C340.808 151.17 342.172 149.5 343.922 148.205C345.672 146.909 347.706 145.92 350.024 145.239C352.365 144.557 354.888 144.114 357.592 143.909C360.524 143.682 362.876 143.409 364.649 143.091C366.445 142.75 367.74 142.284 368.536 141.693C369.331 141.08 369.729 140.273 369.729 139.273V139.136C369.729 137.773 369.206 136.727 368.161 136C367.115 135.273 365.774 134.909 364.138 134.909C362.342 134.909 360.876 135.307 359.74 136.102C358.626 136.875 357.956 138.068 357.729 139.682H340.411C340.638 136.5 341.649 133.568 343.445 130.886C345.263 128.182 347.911 126.023 351.388 124.409C354.865 122.773 359.206 121.955 364.411 121.955C368.161 121.955 371.524 122.398 374.501 123.284C377.479 124.148 380.013 125.364 382.104 126.932C384.195 128.477 385.786 130.295 386.876 132.386C387.99 134.455 388.547 136.705 388.547 139.136V175H370.956V167.636H370.547C369.501 169.591 368.229 171.17 366.729 172.375C365.251 173.58 363.558 174.455 361.649 175C359.763 175.545 357.683 175.818 355.411 175.818ZM361.547 163.955C362.979 163.955 364.32 163.659 365.57 163.068C366.842 162.477 367.876 161.625 368.672 160.511C369.467 159.398 369.865 158.045 369.865 156.455V152.091C369.365 152.295 368.831 152.489 368.263 152.67C367.717 152.852 367.126 153.023 366.49 153.182C365.876 153.341 365.217 153.489 364.513 153.625C363.831 153.761 363.115 153.886 362.365 154C360.911 154.227 359.717 154.602 358.786 155.125C357.876 155.625 357.195 156.25 356.74 157C356.308 157.727 356.092 158.545 356.092 159.455C356.092 160.909 356.604 162.023 357.626 162.795C358.649 163.568 359.956 163.955 361.547 163.955Z" fill="white"/>
</svg>
